<?xml version="1.0" encoding="UTF-8"?>
<svg enable-background="new 0 0 464.472 104.146" version="1.1" viewBox="0 0 464.47 104.15" xml:space="preserve" xmlns="http://www.w3.org/2000/svg" xmlns:cc="http://creativecommons.org/ns#" xmlns:dc="http://purl.org/dc/elements/1.1/" xmlns:rdf="http://www.w3.org/1999/02/22-rdf-syntax-ns#"><metadata><rdf:RDF><cc:Work rdf:about=""><dc:format>image/svg+xml</dc:format><dc:type rdf:resource="http://purl.org/dc/dcmitype/StillImage"/><dc:title/></cc:Work></rdf:RDF></metadata>
<linearGradient id="SVGID_1_" x1="21.418" x2="85.096" y1="9.6627" y2="97.758" gradientUnits="userSpaceOnUse">
	<stop stop-color="#63E48B" offset=".2011"/>
	<stop stop-color="#54E4E5" offset=".7203"/>
</linearGradient>
<path d="M104.146,0H28.114C12.651,0,0,12.651,0,28.114v76.031h76.031c15.463,0,28.114-12.651,28.114-28.114V0  z M14.21,55.973h34.378v33.963H14.21V55.973z M76.031,89.936H62.797V41.764H14.21v-13.65c0-7.667,6.238-13.905,13.905-13.905h61.822  v61.822C89.936,83.699,83.699,89.936,76.031,89.936z" fill="url(#SVGID_1_)"/>
<g fill="#fff">
	<path d="m197.97 10.774-8.398 14.306h-26.501c-12.971 0-16.851 6.183-16.851 13.821v7.759h49.342l-7.034 13.578h-42.308v32.369h-14.306v-53.585c0-16.366 8.486-28.248 30.187-28.248h35.869z"/>
	
		<path d="m201.05 36.502h15.793v56.106h-15.793v-56.106z"/>
		<path d="m300.94 71.314c-0.478 17.467-8.492 22.37-35.888 22.37-15.67 0-24.285-1.196-29.428-4.067-6.938-3.827-9.809-11.245-9.809-25.001 0-13.638 2.871-21.294 9.571-25.003 5.143-2.871 13.756-4.187 28.47-4.187 28.112 0 35.768 4.545 36.248 21.772h-16.15v-0.478c0.24-2.751-1.554-5.742-4.187-7.298-2.513-1.434-7.416-2.032-16.268-2.032-11.365 0-15.79 0.956-18.423 4.067-2.153 2.513-3.229 6.7-3.229 13.16 0 7.058 1.196 11.363 3.947 13.876 2.631 2.513 7.058 3.229 19.978 3.229 13.876 0 18.303-2.511 18.781-10.407h16.387z"/>
		<path d="m381.09 92.608h-15.43v-12.201c-3.589 10.765-9.451 13.638-27.276 13.638-13.28 0-20.456-2.035-25.123-7.178-3.587-4.067-4.903-8.973-4.903-18.303v-32.062h15.79v31.343c0 10.767 3.709 13.398 19.021 13.398 16.509 0 22.13-4.187 22.13-16.389v-28.352h15.79v56.106z"/>
		<path d="m445.57 51.694c0-4.665-3.709-5.742-19.857-5.742-14.954 0-19.262 1.557-19.262 6.7 0 4.785 2.633 5.621 18.423 5.621h8.732c14.596 0 20.218 0.718 24.883 3.351 4.067 2.273 5.982 6.578 5.982 13.398 0 10.287-3.469 14.952-12.92 17.107-4.785 1.076-13.518 1.554-28.232 1.554-19.259 0-25.959-1.316-30.146-6.1-2.751-2.991-3.709-6.342-3.709-12.324v-0.598h16.509v0.598c0.36 7.058 2.513 7.776 22.848 7.896 13.638-0.24 13.638-0.24 16.749-1.674 1.674-0.838 2.751-2.871 2.751-5.143 0-5.504-3.229-6.82-17.345-6.58-5.504 0.12-18.901-0.12-22.012-0.24-13.876-0.956-18.781-5.143-18.781-16.03 0-9.689 3.469-14.354 12.441-16.389 5.023-1.076 12.92-1.674 24.285-1.674 17.345 0 24.045 0.838 29.068 3.589 3.949 2.153 5.982 6.46 5.982 12.799v0.36h-16.388v-0.479z"/>
	
	<polygon points="216.83 25.084 201.05 25.084 209.34 10.778 224.8 10.774"/>
</g>
<text x="465.51196" y="30.115023" fill="#ffffff" font-family="sans-serif" font-size="26.667px" letter-spacing="0px" word-spacing="0px" style="line-height:1.25" xml:space="preserve"><tspan x="465.51196" y="30.115023" fill="#ffffff" font-family="Saira" font-size="26.667px" font-weight="bold" text-align="end" text-anchor="end">COMPONENTS</tspan></text></svg>
