<svg id="Layer_1" data-name="Layer 1" xmlns="http://www.w3.org/2000/svg" viewBox="0 0 1417.32 1417.32"><defs><style>.cls-1{fill:#509353;}.cls-2{fill:#63ca62;}</style></defs><title>Artboard 1 copy 9</title><path class="cls-1" d="M571.27,946.09s190.88,63.12,335.32-51.86,69.13-272.79,71.19-282.94c-48.49-49.6-176.43-94.69-282.7,30.44S571.27,946.09,571.27,946.09Z"/><path class="cls-2" d="M556.43,951.58c34.42-24.37,68.48-49.44,102.3-74.84S726.06,825.41,759.26,799s66-53.44,98.24-81.15,63.85-56.41,94.49-86.3c-30.34,30.24-61.76,59.17-93.68,87.42s-64.61,55.44-97.5,82.33S694.55,854.4,661,880.26s-67.42,51.29-101.69,76.12Z"/><path class="cls-2" d="M711.78,941c-6.29-2.94-12.38-6.37-18.4-9.92s-11.85-7.51-17.6-11.6a172.41,172.41,0,0,1-31.61-28.82l-.16-.19-.08-.25a194.1,194.1,0,0,1-7-27.43c-1-4.63-1.46-9.35-2.17-14-.43-4.72-1-9.42-1.22-14.16a251.46,251.46,0,0,1,.08-28.4,199.44,199.44,0,0,1,3.62-28A238.56,238.56,0,0,0,635,806.23a247.07,247.07,0,0,0,.72,28.15c.26,4.68.87,9.33,1.35,14,.75,4.61,1.27,9.27,2.27,13.83a240.59,240.59,0,0,0,6.93,27l-.24-.44a162.58,162.58,0,0,0,14.62,15.4c5.23,4.72,10.58,9.31,16.16,13.58A317.35,317.35,0,0,0,711.78,941Z"/><path class="cls-2" d="M815.47,929.62l-9.15-1.19a82.93,82.93,0,0,1-9.12-1.5l-9.05-2-2.26-.51-2.22-.68-4.45-1.37a176,176,0,0,1-34.38-14.75,182.14,182.14,0,0,1-31.22-21.67,175.13,175.13,0,0,1-26.8-28l-.84-1.13,1.13-.87,7.5-5.81-.51,1.52c-3.05-13-5.65-26.15-8-39.33s-4.35-26.44-5.77-39.79a371.67,371.67,0,0,1-2.52-40.18c-.12-6.72.29-13.45.8-20.13.41-3.33.76-6.67,1.22-10l2.14-9.79c-3,13-3.24,26.54-2.91,39.88a378.28,378.28,0,0,0,3.22,39.93c1.71,13.24,3.71,26.45,6.13,39.56s5.09,26.19,8.2,39.1l.23,1-.74.56-7.5,5.8.29-2a173.12,173.12,0,0,0,26.18,27.7,198.47,198.47,0,0,0,30.68,21.79,177.67,177.67,0,0,0,33.83,15.35l4.38,1.51,2.19.76,2.23.57,9,2.31a82.32,82.32,0,0,0,9,1.81Z"/><path class="cls-2" d="M877.68,900.59l-10.42-.6c-1.74-.14-3.49-.14-5.21-.41l-5.17-.86c-3.43-.65-6.93-1-10.32-1.89l-10.18-2.71a213.53,213.53,0,0,1-39-16.45,295.85,295.85,0,0,1-35.93-23.49,276.7,276.7,0,0,1-32.49-28.91l1.56.14-8.13,6.37-1.46,1.14-.38-1.9q-5.49-27-8.31-54.48c-.91-9.15-1.67-18.33-1.79-27.55a168.66,168.66,0,0,1,1.37-27.53,184.17,184.17,0,0,0-.41,27.49c.45,9.16,1.36,18.28,2.44,27.38s2.45,18.15,4,27.16,3.12,18,5,27l-1.84-.75,8.09-6.44.82-.64.75.78a313,313,0,0,0,32.23,28.54,294.65,294.65,0,0,0,35.49,23.56,220,220,0,0,0,38.43,17.13A171.61,171.61,0,0,0,877.68,900.59Z"/><path class="cls-2" d="M783.43,609.58c-8,12.83-12.39,27.83-15,42.92a274.39,274.39,0,0,0-3.66,46,533.34,533.34,0,0,0,8.17,92l-2-.84,11.78-9.54.81-.65.77.74A187.27,187.27,0,0,0,812,801.72a224.53,224.53,0,0,0,30.54,16.65l4,1.79,4,1.59c2.69,1,5.33,2.21,8.06,3.1,5.46,1.79,10.89,3.72,16.46,5.08,11.05,3.2,22.4,4.82,33.76,6.23a199.3,199.3,0,0,1-34-5,194.45,194.45,0,0,1-32.91-10.92,203.68,203.68,0,0,1-31-16.32,188.38,188.38,0,0,1-28.26-21.67l1.58.09-11.73,9.62-1.63,1.33-.39-2.17c-2.79-15.27-4.6-30.65-6-46.09a456.59,456.59,0,0,1-1.78-46.5,277.93,277.93,0,0,1,4.44-46.27,148.65,148.65,0,0,1,6.12-22.29A88.66,88.66,0,0,1,783.43,609.58Z"/><path class="cls-2" d="M836.24,596.84A120.77,120.77,0,0,0,827.55,614a143.68,143.68,0,0,0-5.87,18.47,194.92,194.92,0,0,0-5.18,38.61,313.29,313.29,0,0,0,7,77.58l-.61-.87a351.34,351.34,0,0,0,32.61,17.64,328.49,328.49,0,0,0,34.09,14,184.6,184.6,0,0,0,35.47,8.68c12,1.74,24.34,1.62,36.22-1.47a74.42,74.42,0,0,1-18,3.3,104.93,104.93,0,0,1-18.33-.42,184.65,184.65,0,0,1-35.92-8,286.5,286.5,0,0,1-34.45-13.7,344.51,344.51,0,0,1-33-17.58l-.48-.29-.13-.58a309.12,309.12,0,0,1-5.75-39,276,276,0,0,1-.72-39.43,194.7,194.7,0,0,1,6-38.87,145.37,145.37,0,0,1,6.47-18.41A108.54,108.54,0,0,1,836.24,596.84Z"/><path class="cls-2" d="M874.44,645c-4.75,9.84-6.19,21-6.8,31.87-.3,5.49-.21,11,0,16.48s.56,11,1.23,16.39l-.76-1a190.86,190.86,0,0,0,22.68,6.79,209.47,209.47,0,0,0,23.26,4.28,221.27,221.27,0,0,0,23.55,2c7.89.36,15.77.06,23.69-.29a179.1,179.1,0,0,1-23.7,1.87,191.21,191.21,0,0,1-23.79-1.13,209.64,209.64,0,0,1-23.54-4,153.59,153.59,0,0,1-23-7.05l-.67-.26-.09-.78c-.63-5.58-.93-11.11-1.07-16.68a163.08,163.08,0,0,1,.54-16.69,100.27,100.27,0,0,1,2.54-16.46A56.84,56.84,0,0,1,874.44,645Z"/><path class="cls-2" d="M974.9,683.79c-11.48,2.28-23.33,2.12-34.9.62A142.9,142.9,0,0,1,922.77,681a113.31,113.31,0,0,1-16.69-5.62c2.86.6,5.69,1.27,8.55,1.79s5.69,1.17,8.54,1.68c5.71,1,11.41,2,17.14,2.69s11.47,1.29,17.22,1.74c2.88.21,5.77.35,8.66.37C969.09,683.9,972,683.66,974.9,683.79Z"/></svg>