<?xml version="1.0" encoding="UTF-8" standalone="no"?>
<svg
   xmlns:dc="http://purl.org/dc/elements/1.1/"
   xmlns:cc="http://creativecommons.org/ns#"
   xmlns:rdf="http://www.w3.org/1999/02/22-rdf-syntax-ns#"
   xmlns:svg="http://www.w3.org/2000/svg"
   xmlns="http://www.w3.org/2000/svg"
   xmlns:sodipodi="http://sodipodi.sourceforge.net/DTD/sodipodi-0.dtd"
   xmlns:inkscape="http://www.inkscape.org/namespaces/inkscape"
   inkscape:version="1.0beta2 (2b71d25, 2019-12-03)"
   height="402.505"
   width="439.15857"
   sodipodi:docname="ficus-master.svg"
   version="1.1"
   viewBox="0 0 439.15859 402.50502"
   data-name="Layer 1"
   id="Layer_1">
  <metadata
     id="metadata860">
    <rdf:RDF>
      <cc:Work
         rdf:about="">
        <dc:format>image/svg+xml</dc:format>
        <dc:type
           rdf:resource="http://purl.org/dc/dcmitype/StillImage" />
        <dc:title>Artboard 1 copy 9</dc:title>
      </cc:Work>
    </rdf:RDF>
  </metadata>
  <sodipodi:namedview
     inkscape:current-layer="Layer_1"
     inkscape:window-maximized="0"
     inkscape:window-y="23"
     inkscape:window-x="0"
     inkscape:cy="147.78739"
     inkscape:cx="152.22997"
     inkscape:zoom="0.41698418"
     fit-margin-bottom="0"
     fit-margin-right="0"
     fit-margin-left="0"
     fit-margin-top="0"
     showgrid="false"
     id="namedview858"
     inkscape:window-height="798"
     inkscape:window-width="1440"
     inkscape:pageshadow="2"
     inkscape:pageopacity="0"
     guidetolerance="10"
     gridtolerance="10"
     objecttolerance="10"
     borderopacity="1"
     inkscape:document-rotation="0"
     bordercolor="#666666"
     pagecolor="#ffffff" />
  <defs
     id="defs835">
    <style
       id="style833">.cls-1{fill:#509353;}.cls-2{fill:#63ca62;}</style>
  </defs>
  <title
     id="title837">Artboard 1 copy 9</title>
  <g
     transform="translate(-556.43,-560.87258)"
     id="g875">
    <path
       inkscape:connector-curvature="0"
       class="cls-1"
       d="m 571.27,946.09 c 0,0 190.88,63.12 335.32,-51.86 C 1051.03,779.25 975.72,621.44 977.78,611.29 929.29,561.69 801.35,516.6 695.08,641.73 588.81,766.86 571.27,946.09 571.27,946.09 Z"
       id="path839" />
    <path
       inkscape:connector-curvature="0"
       class="cls-2"
       d="m 556.43,951.58 c 34.42,-24.37 68.48,-49.44 102.3,-74.84 33.82,-25.4 67.33,-51.33 100.53,-77.74 33.2,-26.41 66,-53.44 98.24,-81.15 32.24,-27.71 63.85,-56.41 94.49,-86.3 -30.34,30.24 -61.76,59.17 -93.68,87.42 -31.92,28.25 -64.61,55.44 -97.5,82.33 -32.89,26.89 -66.26,53.1 -99.81,78.96 -33.55,25.86 -67.42,51.29 -101.69,76.12 z"
       id="path841" />
    <path
       inkscape:connector-curvature="0"
       class="cls-2"
       d="m 711.78,941 c -6.29,-2.94 -12.38,-6.37 -18.4,-9.92 -6.02,-3.55 -11.85,-7.51 -17.6,-11.6 a 172.41,172.41 0 0 1 -31.61,-28.82 l -0.16,-0.19 -0.08,-0.25 a 194.1,194.1 0 0 1 -7,-27.43 c -1,-4.63 -1.46,-9.35 -2.17,-14 -0.43,-4.72 -1,-9.42 -1.22,-14.16 a 251.46,251.46 0 0 1 0.08,-28.4 199.44,199.44 0 0 1 3.62,-28 238.56,238.56 0 0 0 -2.24,28 247.07,247.07 0 0 0 0.72,28.15 c 0.26,4.68 0.87,9.33 1.35,14 0.75,4.61 1.27,9.27 2.27,13.83 a 240.59,240.59 0 0 0 6.93,27 l -0.24,-0.44 a 162.58,162.58 0 0 0 14.62,15.4 c 5.23,4.72 10.58,9.31 16.16,13.58 A 317.35,317.35 0 0 0 711.78,941 Z"
       id="path843" />
    <path
       inkscape:connector-curvature="0"
       class="cls-2"
       d="m 815.47,929.62 -9.15,-1.19 a 82.93,82.93 0 0 1 -9.12,-1.5 l -9.05,-2 -2.26,-0.51 -2.22,-0.68 -4.45,-1.37 a 176,176 0 0 1 -34.38,-14.75 182.14,182.14 0 0 1 -31.22,-21.67 175.13,175.13 0 0 1 -26.8,-28 l -0.84,-1.13 1.13,-0.87 7.5,-5.81 -0.51,1.52 c -3.05,-13 -5.65,-26.15 -8,-39.33 -2.35,-13.18 -4.35,-26.44 -5.77,-39.79 a 371.67,371.67 0 0 1 -2.52,-40.18 c -0.12,-6.72 0.29,-13.45 0.8,-20.13 0.41,-3.33 0.76,-6.67 1.22,-10 l 2.14,-9.79 c -3,13 -3.24,26.54 -2.91,39.88 a 378.28,378.28 0 0 0 3.22,39.93 c 1.71,13.24 3.71,26.45 6.13,39.56 2.42,13.11 5.09,26.19 8.2,39.1 l 0.23,1 -0.74,0.56 -7.5,5.8 0.29,-2 a 173.12,173.12 0 0 0 26.18,27.7 198.47,198.47 0 0 0 30.68,21.79 177.67,177.67 0 0 0 33.83,15.35 l 4.38,1.51 2.19,0.76 2.23,0.57 9,2.31 a 82.32,82.32 0 0 0 9,1.81 z"
       id="path845" />
    <path
       inkscape:connector-curvature="0"
       class="cls-2"
       d="m 877.68,900.59 -10.42,-0.6 c -1.74,-0.14 -3.49,-0.14 -5.21,-0.41 l -5.17,-0.86 c -3.43,-0.65 -6.93,-1 -10.32,-1.89 l -10.18,-2.71 a 213.53,213.53 0 0 1 -39,-16.45 295.85,295.85 0 0 1 -35.93,-23.49 276.7,276.7 0 0 1 -32.49,-28.91 l 1.56,0.14 -8.13,6.37 -1.46,1.14 -0.38,-1.9 q -5.49,-27 -8.31,-54.48 c -0.91,-9.15 -1.67,-18.33 -1.79,-27.55 a 168.66,168.66 0 0 1 1.37,-27.53 184.17,184.17 0 0 0 -0.41,27.49 c 0.45,9.16 1.36,18.28 2.44,27.38 1.08,9.1 2.45,18.15 4,27.16 1.55,9.01 3.12,18 5,27 l -1.84,-0.75 8.09,-6.44 0.82,-0.64 0.75,0.78 a 313,313 0 0 0 32.23,28.54 294.65,294.65 0 0 0 35.49,23.56 220,220 0 0 0 38.43,17.13 171.61,171.61 0 0 0 40.86,7.92 z"
       id="path847" />
    <path
       inkscape:connector-curvature="0"
       class="cls-2"
       d="m 783.43,609.58 c -8,12.83 -12.39,27.83 -15,42.92 a 274.39,274.39 0 0 0 -3.66,46 533.34,533.34 0 0 0 8.17,92 l -2,-0.84 11.78,-9.54 0.81,-0.65 0.77,0.74 a 187.27,187.27 0 0 0 27.7,21.51 224.53,224.53 0 0 0 30.54,16.65 l 4,1.79 4,1.59 c 2.69,1 5.33,2.21 8.06,3.1 5.46,1.79 10.89,3.72 16.46,5.08 11.05,3.2 22.4,4.82 33.76,6.23 a 199.3,199.3 0 0 1 -34,-5 194.45,194.45 0 0 1 -32.91,-10.92 203.68,203.68 0 0 1 -31,-16.32 188.38,188.38 0 0 1 -28.26,-21.67 l 1.58,0.09 -11.73,9.62 -1.63,1.33 -0.39,-2.17 c -2.79,-15.27 -4.6,-30.65 -6,-46.09 a 456.59,456.59 0 0 1 -1.78,-46.5 277.93,277.93 0 0 1 4.44,-46.27 148.65,148.65 0 0 1 6.12,-22.29 88.66,88.66 0 0 1 10.17,-20.39 z"
       id="path849" />
    <path
       inkscape:connector-curvature="0"
       class="cls-2"
       d="m 836.24,596.84 a 120.77,120.77 0 0 0 -8.69,17.16 143.68,143.68 0 0 0 -5.87,18.47 194.92,194.92 0 0 0 -5.18,38.61 313.29,313.29 0 0 0 7,77.58 l -0.61,-0.87 a 351.34,351.34 0 0 0 32.61,17.64 328.49,328.49 0 0 0 34.09,14 184.6,184.6 0 0 0 35.47,8.68 c 12,1.74 24.34,1.62 36.22,-1.47 a 74.42,74.42 0 0 1 -18,3.3 104.93,104.93 0 0 1 -18.33,-0.42 184.65,184.65 0 0 1 -35.92,-8 286.5,286.5 0 0 1 -34.45,-13.7 344.51,344.51 0 0 1 -33,-17.58 l -0.48,-0.29 -0.13,-0.58 a 309.12,309.12 0 0 1 -5.75,-39 276,276 0 0 1 -0.72,-39.43 194.7,194.7 0 0 1 6,-38.87 145.37,145.37 0 0 1 6.47,-18.41 108.54,108.54 0 0 1 9.27,-16.82 z"
       id="path851" />
    <path
       inkscape:connector-curvature="0"
       class="cls-2"
       d="m 874.44,645 c -4.75,9.84 -6.19,21 -6.8,31.87 -0.3,5.49 -0.21,11 0,16.48 0.21,5.48 0.56,11 1.23,16.39 l -0.76,-1 a 190.86,190.86 0 0 0 22.68,6.79 209.47,209.47 0 0 0 23.26,4.28 221.27,221.27 0 0 0 23.55,2 c 7.89,0.36 15.77,0.06 23.69,-0.29 a 179.1,179.1 0 0 1 -23.7,1.87 191.21,191.21 0 0 1 -23.79,-1.13 209.64,209.64 0 0 1 -23.54,-4 153.59,153.59 0 0 1 -23,-7.05 l -0.67,-0.26 -0.09,-0.78 c -0.63,-5.58 -0.93,-11.11 -1.07,-16.68 a 163.08,163.08 0 0 1 0.54,-16.69 100.27,100.27 0 0 1 2.54,-16.46 56.84,56.84 0 0 1 5.93,-15.34 z"
       id="path853" />
    <path
       inkscape:connector-curvature="0"
       class="cls-2"
       d="m 974.9,683.79 c -11.48,2.28 -23.33,2.12 -34.9,0.62 A 142.9,142.9 0 0 1 922.77,681 113.31,113.31 0 0 1 906.08,675.38 c 2.86,0.6 5.69,1.27 8.55,1.79 2.86,0.52 5.69,1.17 8.54,1.68 5.71,1 11.41,2 17.14,2.69 5.73,0.69 11.47,1.29 17.22,1.74 2.88,0.21 5.77,0.35 8.66,0.37 2.9,0.25 5.81,0.01 8.71,0.14 z"
       id="path855" />
  </g>
</svg>
